<svg width="322" height="322" viewBox="0 0 322 322" fill="none" xmlns="http://www.w3.org/2000/svg">
<path d="M311.6 55.5998C324.1 43.0998 324.1 22.7998 311.6 10.2998C299.1 -2.2002 278.8 -2.2002 266.3 10.2998L161 115.7L55.6 10.3998C43.1 -2.1002 22.8 -2.1002 10.3 10.3998C-2.2 22.8998 -2.2 43.1998 10.3 55.6998L115.7 161L10.4 266.4C-2.1 278.9 -2.1 299.2 10.4 311.7C22.9 324.2 43.2 324.2 55.7 311.7L161 206.3L266.4 311.6C278.9 324.1 299.2 324.1 311.7 311.6C324.2 299.1 324.2 278.8 311.7 266.3L206.3 161L311.6 55.5998Z" fill="black"/>
</svg>
